<svg width="412.4875244140625px" height="122.021240234375px" xmlns="http://www.w3.org/2000/svg" viewBox="43.75623779296876 13.9893798828125 412.4875244140625 122.021240234375" style="background: rgba(0, 0, 0, 0);" preserveAspectRatio="xMidYMid"><defs><linearGradient id="editing-shiny-gradient" x1="0.04322727117869957" x2="0.9567727288213004" y1="0.2966316784620999" y2="0.7033683215379001" gradientUnits="objectBoundingBox"><stop offset="0.0" stop-color="#ffb200"></stop><stop offset="0.5" stop-color="#e10057"></stop><stop offset="1.0" stop-color="#5A1A80"></stop></linearGradient><linearGradient id="editing-shiny-gradient2" x1="0" x2="0" y1="0" y2="1"><stop offset="0.2" stop-color="#fff" stop-opacity="0.8"></stop><stop offset="0.8" stop-color="#fff" stop-opacity="0"></stop></linearGradient><filter id="editing-shiny2" x="-100%" y="-100%" width="300%" height="300%"><feMorphology operator="erode" radius="2"></feMorphology></filter><filter id="editing-shiny" x="-100%" y="-100%" width="300%" height="300%"><feFlood flood-color="#fff" result="flood"></feFlood><feConvolveMatrix in="SourceGraphic" result="conv" order="8,8" divisor="1" kernelMatrix="0 0 0 0 0 0 0 0 0 0 0 1 1 0 0 0 0 0 0 1 1 0 0 0 0 0 1 0 0 1 0 0 0 0 1 0 0 1 0 0 0 1 0 0 0 0 1 0 0 1 1 0 0 1 1 0 0 0 0 1 1 0 0 0 "></feConvolveMatrix><feOffset dx="0" dy="4" in="conv" result="offset"></feOffset><feComposite operator="in" in="flood" in2="offset" result="comp"></feComposite><feGaussianBlur in="offset" stdDeviation="3" result="shadow"></feGaussianBlur><feColorMatrix in="shadow" type="matrix" values="0.7 0 0 0 0  0 0.7 0 0 0  0 0 0.7 0 0  0 0 0 0.3 0" result="dark-shadow"></feColorMatrix><feOffset dx="0" dy="4" in="dark-shadow" result="offset-shadow"></feOffset><feOffset dx="0" dy="2" in="conv" result="offset-2"></feOffset><feComposite operator="out" in="offset" in2="offset-2" result="edge-diff"></feComposite><feGaussianBlur in="edge-diff" stdDeviation="1" result="edge-blur"></feGaussianBlur><feColorMatrix in="edge-blur" result="edge-shadow" type="matrix" values="0 0 0 0 0  0 0 0 0 0  0 0 0 0 0  0 0 0 0.5 0"></feColorMatrix><feComposite operator="in" in="edge-shadow" in2="offset" result="edge-shadow-in"></feComposite><feOffset dx="0" dy="1" in="edge-shadow-in" result="edge-shadow-final"></feOffset><feMerge result="out"><feMergeNode in="offset-shadow"></feMergeNode><feMergeNode in="comp"></feMergeNode><feMergeNode in="edge-shadow-final"></feMergeNode><feMergeNode in="SourceGraphic"></feMergeNode></feMerge></filter></defs><g filter="url(#editing-shiny)"><g transform="translate(105.65000307559967, 104.1121883392334)"><path d="M7.30-9.15L1.54-9.15L1.54-9.15Q1.15-10.56 1.15-12.26L1.15-12.26L1.15-12.26Q1.15-13.95 2.37-15.23L2.37-15.23L2.37-15.23Q3.58-16.51 5.82-16.51L5.82-16.51L8.58-16.51L9.98-24.77L3.52-24.77L3.52-24.77Q3.14-26.18 3.14-27.90L3.14-27.90L3.14-27.90Q3.14-29.63 4.35-30.88L4.35-30.88L4.35-30.88Q5.57-32.13 7.81-32.13L7.81-32.13L11.20-32.13L12.22-38.34L12.22-38.34Q12.93-42.24 16.45-42.24L16.45-42.24L16.45-42.24Q17.86-42.24 19.71-41.47L19.71-41.47L18.24-32.13L25.34-32.13L26.37-38.34L26.37-38.34Q26.69-40.19 27.78-41.22L27.78-41.22L27.78-41.22Q28.86-42.24 30.46-42.24L30.46-42.24L30.46-42.24Q32.06-42.24 33.79-41.47L33.79-41.47L32.38-32.13L38.46-32.13L38.46-32.13Q38.78-30.66 38.78-28.96L38.78-28.96L38.78-28.96Q38.78-27.26 37.60-26.02L37.60-26.02L37.60-26.02Q36.42-24.77 34.18-24.77L34.18-24.77L31.23-24.77L29.95-16.51L36.42-16.51L36.42-16.51Q36.80-15.04 36.80-13.34L36.80-13.34L36.80-13.34Q36.80-11.65 35.58-10.40L35.58-10.40L35.58-10.40Q34.37-9.15 32.13-9.15L32.13-9.15L28.86-9.15L28.10-3.90L28.10-3.90Q27.84-2.05 26.43-1.02L26.43-1.02L26.43-1.02Q25.02 0 23.33 0L23.33 0L23.33 0Q21.63 0 20.03-0.77L20.03-0.77L21.50-9.15L14.72-9.15L13.95-3.90L13.95-3.90Q13.70-2.05 12.29-1.02L12.29-1.02L12.29-1.02Q10.88 0 9.18 0L9.18 0L9.18 0Q7.49 0 5.89-0.77L5.89-0.77L7.30-9.15ZM17.09-24.77L15.87-16.51L22.72-16.51L24.13-24.77L17.09-24.77ZM82.69-26.56L82.69-26.56L82.69-26.56Q82.69 0.70 53.12 0.70L53.12 0.70L53.12 0.70Q48.38 0.70 40.58-0.45L40.58-0.45L47.74-38.27L47.74-38.27Q48.26-40.83 48.58-42.30L48.58-42.30L48.58-42.30Q58.30-43.01 62.62-43.01L62.62-43.01L62.62-43.01Q66.94-43.01 70.91-42.11L70.91-42.11L70.91-42.11Q74.88-41.22 77.50-39.23L77.50-39.23L77.50-39.23Q82.69-35.33 82.69-26.56ZM69.50-28.93L69.50-28.93L69.50-28.93Q69.50-38.46 62.66-38.46L62.66-38.46L62.02-38.46L62.02-38.46Q61.70-38.46 61.38-38.40L61.38-38.40L54.78-4.03L54.78-4.03Q55.04-3.90 55.30-3.90L55.30-3.90L55.81-3.90L55.81-3.90Q58.18-3.90 60.64-5.38L60.64-5.38L60.64-5.38Q63.10-6.85 65.02-9.86L65.02-9.86L65.02-9.86Q69.50-16.83 69.50-28.93ZM111.87-10.82L111.87-10.82L111.87-10.82Q113.47-9.73 113.47-7.33L113.47-7.33L113.47-7.33Q113.47-4.93 112.26-3.39L112.26-3.39L112.26-3.39Q111.04-1.86 109.06-0.83L109.06-0.83L109.06-0.83Q104.96 1.28 100.54 1.28L100.54 1.28L100.54 1.28Q96.13 1.28 93.54 0.32L93.54 0.32L93.54 0.32Q90.94-0.64 89.22-2.43L89.22-2.43L89.22-2.43Q85.82-5.82 85.82-12.03L85.82-12.03L85.82-12.03Q85.82-21.70 91.07-27.58L91.07-27.58L91.07-27.58Q96.70-33.92 106.50-33.92L106.50-33.92L106.50-33.92Q112.58-33.92 115.58-31.36L115.58-31.36L115.58-31.36Q117.82-29.44 117.82-26.30L117.82-26.30L117.82-26.30Q117.82-15.04 98.37-15.04L98.37-15.04L98.37-15.04Q98.11-13.38 98.11-11.97L98.11-11.97L98.11-11.97Q98.11-9.02 99.42-7.90L99.42-7.90L99.42-7.90Q100.74-6.78 103.17-6.78L103.17-6.78L103.17-6.78Q105.60-6.78 108.19-7.90L108.19-7.90L108.19-7.90Q110.78-9.02 111.87-10.82ZM98.82-17.79L98.82-17.79L98.82-17.79Q103.36-17.79 105.98-20.61L105.98-20.61L105.98-20.61Q108.61-23.30 108.61-27.58L108.61-27.58L108.61-27.58Q108.61-29.06 108.06-29.86L108.06-29.86L108.06-29.86Q107.52-30.66 106.43-30.66L106.43-30.66L106.43-30.66Q105.34-30.66 104.42-30.24L104.42-30.24L104.42-30.24Q103.49-29.82 102.53-28.42L102.53-28.42L102.53-28.42Q100.16-25.22 98.82-17.79ZM143.23-31.55L143.23-31.55L143.23-31.55Q145.34-33.92 148.99-33.92L148.99-33.92L148.99-33.92Q151.23-33.92 152.96-32.70L152.96-32.70L152.96-32.70Q154.69-31.49 154.69-29.22L154.69-29.22L154.69-29.22Q154.69-26.94 153.98-24.51L153.98-24.51L153.98-24.51Q153.28-22.08 152.19-19.58L152.19-19.58L152.19-19.58Q150.02-14.72 147.01-10.69L147.01-10.69L147.01-10.69Q142.78-4.86 138.72-1.79L138.72-1.79L138.72-1.79Q134.66 1.28 130.24 1.28L130.24 1.28L130.24 1.28Q126.66 1.28 124.48 0.45L124.48 0.45L124.48 0.45Q124.10-12.99 123.62-17.79L123.62-17.79L123.62-17.79Q123.14-22.59 122.75-25.22L122.75-25.22L122.75-25.22Q122.11-30.34 120.19-31.55L120.19-31.55L120.19-31.55Q121.66-32.83 123.10-33.38L123.10-33.38L123.10-33.38Q124.54-33.92 127.52-33.92L127.52-33.92L127.52-33.92Q130.50-33.92 132.61-31.58L132.61-31.58L132.61-31.58Q134.72-29.25 135.14-25.12L135.14-25.12L135.14-25.12Q135.55-20.99 135.55-16L135.55-16L135.55-16Q135.55-11.01 135.17-4.99L135.17-4.99L135.17-4.99Q137.15-6.40 139.26-10.69L139.26-10.69L139.26-10.69Q142.14-16.64 143.17-23.81L143.17-23.81L143.17-23.81Q143.49-25.98 143.49-28.29L143.49-28.29L143.49-28.29Q143.49-30.59 143.23-31.55ZM148.35 8.83L148.35 8.83L148.35 8.83Q151.62 8.45 153.66 4.22L153.66 4.22L153.66 4.22Q155.78-0.06 157.70-9.92L157.70-9.92L163.90-42.24L177.79-42.24L171.58-9.92L171.58-9.92Q169.22 2.62 165.31 7.55L165.31 7.55L165.31 7.55Q163.26 10.11 160.67 11.14L160.67 11.14L160.67 11.14Q158.08 12.16 155.26 12.16L155.26 12.16L155.26 12.16Q152.45 12.16 150.62 11.14L150.62 11.14L150.62 11.14Q148.80 10.11 148.35 8.83ZM193.15 1.28L193.15 1.28L193.15 1.28Q179.07 1.28 179.07-11.97L179.07-11.97L179.07-11.97Q179.07-21.38 184.26-27.46L184.26-27.46L184.26-27.46Q189.76-33.92 199.30-33.92L199.30-33.92L199.30-33.92Q206.21-33.92 209.73-30.72L209.73-30.72L209.73-30.72Q213.25-27.52 213.25-20.80L213.25-20.80L213.25-20.80Q213.25-10.56 207.74-4.61L207.74-4.61L207.74-4.61Q202.37 1.28 193.15 1.28ZM194.82-26.56L194.82-26.56L194.82-26.56Q194.05-24.83 193.44-22.24L193.44-22.24L193.44-22.24Q192.83-19.65 192.06-15.55L192.06-15.55L192.06-15.55Q191.30-11.46 191.30-6.40L191.30-6.40L191.30-6.40Q191.30-4.74 191.84-3.65L191.84-3.65L191.84-3.65Q192.38-2.56 193.86-2.56L193.86-2.56L193.86-2.56Q195.33-2.56 196.26-3.26L196.26-3.26L196.26-3.26Q197.18-3.97 197.89-5.63L197.89-5.63L197.89-5.63Q199.17-8.58 200.19-14.05L200.19-14.05L200.19-14.05Q201.22-19.52 201.31-21.89L201.31-21.89L201.31-21.89Q201.41-24.26 201.41-26.02L201.41-26.02L201.41-26.02Q201.41-27.78 200.90-28.93L200.90-28.93L200.90-28.93Q200.38-30.08 198.94-30.08L198.94-30.08L198.94-30.08Q197.50-30.08 196.54-29.18L196.54-29.18L196.54-29.18Q195.58-28.29 194.82-26.56ZM233.54-30.34L233.54-30.34L233.54-30.34Q236.99-33.92 244.29-33.92L244.29-33.92L244.29-33.92Q248.32-33.92 250.53-31.78L250.53-31.78L250.53-31.78Q252.74-29.63 252.74-25.70L252.74-25.70L252.74-25.70Q252.74-21.76 250.53-18.98L250.53-18.98L250.53-18.98Q248.32-16.19 244.22-15.04L244.22-15.04L244.22-15.04Q244.54-13.76 244.99-12.42L244.99-12.42L245.89-9.86L245.89-9.86Q247.10-6.59 248.06-5.44L248.06-5.44L248.06-5.44Q249.02-4.29 250.30-3.90L250.30-3.90L250.30-3.90Q249.60-1.28 247.04 0.13L247.04 0.13L247.04 0.13Q244.99 1.28 242.18 1.28L242.18 1.28L242.18 1.28Q233.92 1.28 232.83-11.46L232.83-11.46L232.83-11.46Q232.64-13.25 232.64-15.04L232.64-15.04L232.64-15.04Q235.84-15.94 238.08-18.94L238.08-18.94L238.08-18.94Q240.32-21.95 240.32-25.47L240.32-25.47L240.32-25.47Q240.32-28.99 237.82-28.99L237.82-28.99L237.82-28.99Q236.03-28.99 234.62-27.01L234.62-27.01L234.62-27.01Q233.22-25.02 232.58-21.63L232.58-21.63L228.35 0L215.42 1.28L224.38-44.80L237.25-46.08L235.78-38.46L235.78-38.46Q234.82-33.09 233.54-30.34ZM281.60-10.82L281.60-10.82L281.60-10.82Q283.20-9.73 283.20-7.33L283.20-7.33L283.20-7.33Q283.20-4.93 281.98-3.39L281.98-3.39L281.98-3.39Q280.77-1.86 278.78-0.83L278.78-0.83L278.78-0.83Q274.69 1.28 270.27 1.28L270.27 1.28L270.27 1.28Q265.86 1.28 263.26 0.32L263.26 0.32L263.26 0.32Q260.67-0.64 258.94-2.43L258.94-2.43L258.94-2.43Q255.55-5.82 255.55-12.03L255.55-12.03L255.55-12.03Q255.55-21.70 260.80-27.58L260.80-27.58L260.80-27.58Q266.43-33.92 276.22-33.92L276.22-33.92L276.22-33.92Q282.30-33.92 285.31-31.36L285.31-31.36L285.31-31.36Q287.55-29.44 287.55-26.30L287.55-26.30L287.55-26.30Q287.55-15.04 268.10-15.04L268.10-15.04L268.10-15.04Q267.84-13.38 267.84-11.97L267.84-11.97L267.84-11.97Q267.84-9.02 269.15-7.90L269.15-7.90L269.15-7.90Q270.46-6.78 272.90-6.78L272.90-6.78L272.90-6.78Q275.33-6.78 277.92-7.90L277.92-7.90L277.92-7.90Q280.51-9.02 281.60-10.82ZM268.54-17.79L268.54-17.79L268.54-17.79Q273.09-17.79 275.71-20.61L275.71-20.61L275.71-20.61Q278.34-23.30 278.34-27.58L278.34-27.58L278.34-27.58Q278.34-29.06 277.79-29.86L277.79-29.86L277.79-29.86Q277.25-30.66 276.16-30.66L276.16-30.66L276.16-30.66Q275.07-30.66 274.14-30.24L274.14-30.24L274.14-30.24Q273.22-29.82 272.26-28.42L272.26-28.42L272.26-28.42Q269.89-25.22 268.54-17.79Z" fill="url(#editing-shiny-gradient)"></path></g></g><g filter="url(#editing-shiny2)"><g transform="translate(105.65000307559967, 104.1200008392334)"><path d="M7.30-9.15L1.54-9.15L1.54-9.15Q1.15-10.56 1.15-12.26L1.15-12.26L1.15-12.26Q1.15-13.95 2.37-15.23L2.37-15.23L2.37-15.23Q3.58-16.51 5.82-16.51L5.82-16.51L8.58-16.51L9.98-24.77L3.52-24.77L3.52-24.77Q3.14-26.18 3.14-27.90L3.14-27.90L3.14-27.90Q3.14-29.63 4.35-30.88L4.35-30.88L4.35-30.88Q5.57-32.13 7.81-32.13L7.81-32.13L11.20-32.13L12.22-38.34L12.22-38.34Q12.93-42.24 16.45-42.24L16.45-42.24L16.45-42.24Q17.86-42.24 19.71-41.47L19.71-41.47L18.24-32.13L25.34-32.13L26.37-38.34L26.37-38.34Q26.69-40.19 27.78-41.22L27.78-41.22L27.78-41.22Q28.86-42.24 30.46-42.24L30.46-42.24L30.46-42.24Q32.06-42.24 33.79-41.47L33.79-41.47L32.38-32.13L38.46-32.13L38.46-32.13Q38.78-30.66 38.78-28.96L38.78-28.96L38.78-28.96Q38.78-27.26 37.60-26.02L37.60-26.02L37.60-26.02Q36.42-24.77 34.18-24.77L34.18-24.77L31.23-24.77L29.95-16.51L36.42-16.51L36.42-16.51Q36.80-15.04 36.80-13.34L36.80-13.34L36.80-13.34Q36.80-11.65 35.58-10.40L35.58-10.40L35.58-10.40Q34.37-9.15 32.13-9.15L32.13-9.15L28.86-9.15L28.10-3.90L28.10-3.90Q27.84-2.05 26.43-1.02L26.43-1.02L26.43-1.02Q25.02 0 23.33 0L23.33 0L23.33 0Q21.63 0 20.03-0.77L20.03-0.77L21.50-9.15L14.72-9.15L13.95-3.90L13.95-3.90Q13.70-2.05 12.29-1.02L12.29-1.02L12.29-1.02Q10.88 0 9.18 0L9.18 0L9.18 0Q7.49 0 5.89-0.77L5.89-0.77L7.30-9.15ZM17.09-24.77L15.87-16.51L22.72-16.51L24.13-24.77L17.09-24.77ZM82.69-26.56L82.69-26.56L82.69-26.56Q82.69 0.70 53.12 0.70L53.12 0.70L53.12 0.70Q48.38 0.70 40.58-0.45L40.58-0.45L47.74-38.27L47.74-38.27Q48.26-40.83 48.58-42.30L48.58-42.30L48.58-42.30Q58.30-43.01 62.62-43.01L62.62-43.01L62.62-43.01Q66.94-43.01 70.91-42.11L70.91-42.11L70.91-42.11Q74.88-41.22 77.50-39.23L77.50-39.23L77.50-39.23Q82.69-35.33 82.69-26.56ZM69.50-28.93L69.50-28.93L69.50-28.93Q69.50-38.46 62.66-38.46L62.66-38.46L62.02-38.46L62.02-38.46Q61.70-38.46 61.38-38.40L61.38-38.40L54.78-4.03L54.78-4.03Q55.04-3.90 55.30-3.90L55.30-3.90L55.81-3.90L55.81-3.90Q58.18-3.90 60.64-5.38L60.64-5.38L60.64-5.38Q63.10-6.85 65.02-9.86L65.02-9.86L65.02-9.86Q69.50-16.83 69.50-28.93ZM111.87-10.82L111.87-10.82L111.87-10.82Q113.47-9.73 113.47-7.33L113.47-7.33L113.47-7.33Q113.47-4.93 112.26-3.39L112.26-3.39L112.26-3.39Q111.04-1.86 109.06-0.83L109.06-0.83L109.06-0.83Q104.96 1.28 100.54 1.28L100.54 1.28L100.54 1.28Q96.13 1.28 93.54 0.32L93.54 0.32L93.54 0.32Q90.94-0.64 89.22-2.43L89.22-2.43L89.22-2.43Q85.82-5.82 85.82-12.03L85.82-12.03L85.82-12.03Q85.82-21.70 91.07-27.58L91.07-27.58L91.07-27.58Q96.70-33.92 106.50-33.92L106.50-33.92L106.50-33.92Q112.58-33.92 115.58-31.36L115.58-31.36L115.58-31.36Q117.82-29.44 117.82-26.30L117.82-26.30L117.82-26.30Q117.82-15.04 98.37-15.04L98.37-15.04L98.37-15.04Q98.11-13.38 98.11-11.97L98.11-11.97L98.11-11.97Q98.11-9.02 99.42-7.90L99.42-7.90L99.42-7.90Q100.74-6.78 103.17-6.78L103.17-6.78L103.17-6.78Q105.60-6.78 108.19-7.90L108.19-7.90L108.19-7.90Q110.78-9.02 111.87-10.82ZM98.82-17.79L98.82-17.79L98.82-17.79Q103.36-17.79 105.98-20.61L105.98-20.61L105.98-20.61Q108.61-23.30 108.61-27.58L108.61-27.58L108.61-27.58Q108.61-29.06 108.06-29.86L108.06-29.86L108.06-29.86Q107.52-30.66 106.43-30.66L106.43-30.66L106.43-30.66Q105.34-30.66 104.42-30.24L104.42-30.24L104.42-30.24Q103.49-29.82 102.53-28.42L102.53-28.42L102.53-28.42Q100.16-25.22 98.82-17.79ZM143.23-31.55L143.23-31.55L143.23-31.55Q145.34-33.92 148.99-33.92L148.99-33.92L148.99-33.92Q151.23-33.92 152.96-32.70L152.96-32.70L152.96-32.70Q154.69-31.49 154.69-29.22L154.69-29.22L154.69-29.22Q154.69-26.94 153.98-24.51L153.98-24.51L153.98-24.51Q153.28-22.08 152.19-19.58L152.19-19.58L152.19-19.58Q150.02-14.72 147.01-10.69L147.01-10.69L147.01-10.69Q142.78-4.86 138.72-1.79L138.72-1.79L138.72-1.79Q134.66 1.28 130.24 1.28L130.24 1.28L130.24 1.28Q126.66 1.28 124.48 0.45L124.48 0.45L124.48 0.45Q124.10-12.99 123.62-17.79L123.62-17.79L123.62-17.79Q123.14-22.59 122.75-25.22L122.75-25.22L122.75-25.22Q122.11-30.34 120.19-31.55L120.19-31.55L120.19-31.55Q121.66-32.83 123.10-33.38L123.10-33.38L123.10-33.38Q124.54-33.92 127.52-33.92L127.52-33.92L127.52-33.92Q130.50-33.92 132.61-31.58L132.61-31.58L132.61-31.58Q134.72-29.25 135.14-25.12L135.14-25.12L135.14-25.12Q135.55-20.99 135.55-16L135.55-16L135.55-16Q135.55-11.01 135.17-4.99L135.17-4.99L135.17-4.99Q137.15-6.40 139.26-10.69L139.26-10.69L139.26-10.69Q142.14-16.64 143.17-23.81L143.17-23.81L143.17-23.81Q143.49-25.98 143.49-28.29L143.49-28.29L143.49-28.29Q143.49-30.59 143.23-31.55ZM148.35 8.83L148.35 8.83L148.35 8.83Q151.62 8.45 153.66 4.22L153.66 4.22L153.66 4.22Q155.78-0.06 157.70-9.92L157.70-9.92L163.90-42.24L177.79-42.24L171.58-9.92L171.58-9.92Q169.22 2.62 165.31 7.55L165.31 7.55L165.31 7.55Q163.26 10.11 160.67 11.14L160.67 11.14L160.67 11.14Q158.08 12.16 155.26 12.16L155.26 12.16L155.26 12.16Q152.45 12.16 150.62 11.14L150.62 11.14L150.62 11.14Q148.80 10.11 148.35 8.83ZM193.15 1.28L193.15 1.28L193.15 1.28Q179.07 1.28 179.07-11.97L179.07-11.97L179.07-11.97Q179.07-21.38 184.26-27.46L184.26-27.46L184.26-27.46Q189.76-33.92 199.30-33.92L199.30-33.92L199.30-33.92Q206.21-33.92 209.73-30.72L209.73-30.72L209.73-30.72Q213.25-27.52 213.25-20.80L213.25-20.80L213.25-20.80Q213.25-10.56 207.74-4.61L207.74-4.61L207.74-4.61Q202.37 1.28 193.15 1.28ZM194.82-26.56L194.82-26.56L194.82-26.56Q194.05-24.83 193.44-22.24L193.44-22.24L193.44-22.24Q192.83-19.65 192.06-15.55L192.06-15.55L192.06-15.55Q191.30-11.46 191.30-6.40L191.30-6.40L191.30-6.40Q191.30-4.74 191.84-3.65L191.84-3.65L191.84-3.65Q192.38-2.56 193.86-2.56L193.86-2.56L193.86-2.56Q195.33-2.56 196.26-3.26L196.26-3.26L196.26-3.26Q197.18-3.97 197.89-5.63L197.89-5.63L197.89-5.63Q199.17-8.58 200.19-14.05L200.19-14.05L200.19-14.05Q201.22-19.52 201.31-21.89L201.31-21.89L201.31-21.89Q201.41-24.26 201.41-26.02L201.41-26.02L201.41-26.02Q201.41-27.78 200.90-28.93L200.90-28.93L200.90-28.93Q200.38-30.08 198.94-30.08L198.94-30.08L198.94-30.08Q197.50-30.08 196.54-29.18L196.54-29.18L196.54-29.18Q195.58-28.29 194.82-26.56ZM233.54-30.34L233.54-30.34L233.54-30.34Q236.99-33.92 244.29-33.92L244.29-33.92L244.29-33.92Q248.32-33.92 250.53-31.78L250.53-31.78L250.53-31.78Q252.74-29.63 252.74-25.70L252.74-25.70L252.74-25.70Q252.74-21.76 250.53-18.98L250.53-18.98L250.53-18.98Q248.32-16.19 244.22-15.04L244.22-15.04L244.22-15.04Q244.54-13.76 244.99-12.42L244.99-12.42L245.89-9.86L245.89-9.86Q247.10-6.59 248.06-5.44L248.06-5.44L248.06-5.44Q249.02-4.29 250.30-3.90L250.30-3.90L250.30-3.90Q249.60-1.28 247.04 0.13L247.04 0.13L247.04 0.13Q244.99 1.28 242.18 1.28L242.18 1.28L242.18 1.28Q233.92 1.28 232.83-11.46L232.83-11.46L232.83-11.46Q232.64-13.25 232.64-15.04L232.64-15.04L232.64-15.04Q235.84-15.94 238.08-18.94L238.08-18.94L238.08-18.94Q240.32-21.95 240.32-25.47L240.32-25.47L240.32-25.47Q240.32-28.99 237.82-28.99L237.82-28.99L237.82-28.99Q236.03-28.99 234.62-27.01L234.62-27.01L234.62-27.01Q233.22-25.02 232.58-21.63L232.58-21.63L228.35 0L215.42 1.28L224.38-44.80L237.25-46.08L235.78-38.46L235.78-38.46Q234.82-33.09 233.54-30.34ZM281.60-10.82L281.60-10.82L281.60-10.82Q283.20-9.73 283.20-7.33L283.20-7.33L283.20-7.33Q283.20-4.93 281.98-3.39L281.98-3.39L281.98-3.39Q280.77-1.86 278.78-0.83L278.78-0.83L278.78-0.83Q274.69 1.28 270.27 1.28L270.27 1.28L270.27 1.28Q265.86 1.28 263.26 0.32L263.26 0.32L263.26 0.32Q260.67-0.64 258.94-2.43L258.94-2.43L258.94-2.43Q255.55-5.82 255.55-12.03L255.55-12.03L255.55-12.03Q255.55-21.70 260.80-27.58L260.80-27.58L260.80-27.58Q266.43-33.92 276.22-33.92L276.22-33.92L276.22-33.92Q282.30-33.92 285.31-31.36L285.31-31.36L285.31-31.36Q287.55-29.44 287.55-26.30L287.55-26.30L287.55-26.30Q287.55-15.04 268.10-15.04L268.10-15.04L268.10-15.04Q267.84-13.38 267.84-11.97L267.84-11.97L267.84-11.97Q267.84-9.02 269.15-7.90L269.15-7.90L269.15-7.90Q270.46-6.78 272.90-6.78L272.90-6.78L272.90-6.78Q275.33-6.78 277.92-7.90L277.92-7.90L277.92-7.90Q280.51-9.02 281.60-10.82ZM268.54-17.79L268.54-17.79L268.54-17.79Q273.09-17.79 275.71-20.61L275.71-20.61L275.71-20.61Q278.34-23.30 278.34-27.58L278.34-27.58L278.34-27.58Q278.34-29.06 277.79-29.86L277.79-29.86L277.79-29.86Q277.25-30.66 276.16-30.66L276.16-30.66L276.16-30.66Q275.07-30.66 274.14-30.24L274.14-30.24L274.14-30.24Q273.22-29.82 272.26-28.42L272.26-28.42L272.26-28.42Q269.89-25.22 268.54-17.79Z" fill="url(#editing-shiny-gradient2)"></path></g></g><style>text {
  font-size: 64px;
  font-family: Arial Black;
  dominant-baseline: central;
  text-anchor: middle;
}</style></svg>