<svg width="179" height="48" viewBox="0 0 179 48" fill="none" xmlns="http://www.w3.org/2000/svg">
<path d="M68.218 16.7812V26.2832C68.218 27.7936 67.7329 28.9915 66.7629 29.877C65.7993 30.7559 64.5135 31.1953 62.9055 31.1953C61.2779 31.1953 59.9855 30.7624 59.0285 29.8965C58.0715 29.0241 57.593 27.8164 57.593 26.2734V16.7812H60.0539V26.293C60.0539 27.2435 60.2948 27.9694 60.7766 28.4707C61.2583 28.972 61.968 29.2227 62.9055 29.2227C64.8065 29.2227 65.757 28.2201 65.757 26.2148V16.7812H68.218ZM73.6219 31H71.1609V16.7812H73.6219V31Z" fill="#E91E63"/>
<path d="M81.9395 31V16.7812H86.1387C87.3952 16.7812 88.5085 17.0612 89.4785 17.6211C90.4551 18.181 91.2103 18.9753 91.7441 20.0039C92.278 21.0326 92.5449 22.2109 92.5449 23.5391V24.252C92.5449 25.5996 92.2747 26.7845 91.7344 27.8066C91.2005 28.8288 90.4355 29.6165 89.4395 30.1699C88.4499 30.7233 87.3138 31 86.0312 31H81.9395ZM84.4102 18.7734V29.0273H86.0215C87.3171 29.0273 88.3099 28.6237 89 27.8164C89.6966 27.0026 90.0514 25.8372 90.0645 24.3203V23.5293C90.0645 21.9863 89.7292 20.8079 89.0586 19.9941C88.388 19.1803 87.4147 18.7734 86.1387 18.7734H84.4102ZM101.24 31C101.136 30.7982 101.045 30.4694 100.966 30.0137C100.211 30.8014 99.2867 31.1953 98.193 31.1953C97.1318 31.1953 96.2659 30.8926 95.5953 30.2871C94.9247 29.6816 94.5895 28.9329 94.5895 28.041C94.5895 26.9147 95.0061 26.0521 95.8395 25.4531C96.6793 24.8477 97.8772 24.5449 99.4332 24.5449H100.888V23.8516C100.888 23.3047 100.735 22.8685 100.429 22.543C100.123 22.2109 99.6578 22.0449 99.0328 22.0449C98.4924 22.0449 98.0497 22.1816 97.7047 22.4551C97.3596 22.722 97.1871 23.0638 97.1871 23.4805H94.8141C94.8141 22.901 95.0061 22.3607 95.3902 21.8594C95.7743 21.3516 96.2952 20.9544 96.9527 20.668C97.6168 20.3815 98.3557 20.2383 99.1695 20.2383C100.407 20.2383 101.393 20.5508 102.129 21.1758C102.864 21.7943 103.242 22.6667 103.261 23.793V28.5586C103.261 29.5091 103.395 30.2676 103.662 30.834V31H101.24ZM98.6324 29.291C99.1012 29.291 99.5406 29.1771 99.9508 28.9492C100.367 28.7214 100.68 28.4154 100.888 28.0312V26.0391H99.609C98.7301 26.0391 98.0693 26.1921 97.6266 26.498C97.1839 26.804 96.9625 27.237 96.9625 27.7969C96.9625 28.2526 97.1122 28.6172 97.4117 28.8906C97.7177 29.1576 98.1246 29.291 98.6324 29.291ZM111.82 28.1289C111.82 27.7057 111.644 27.3835 111.292 27.1621C110.947 26.9408 110.371 26.7454 109.564 26.5762C108.756 26.4069 108.083 26.1921 107.542 25.9316C106.357 25.3587 105.765 24.5286 105.765 23.4414C105.765 22.5299 106.149 21.7682 106.917 21.1562C107.685 20.5443 108.662 20.2383 109.847 20.2383C111.11 20.2383 112.129 20.5508 112.904 21.1758C113.685 21.8008 114.075 22.6113 114.075 23.6074H111.702C111.702 23.1517 111.533 22.7741 111.195 22.4746C110.856 22.1686 110.407 22.0156 109.847 22.0156C109.326 22.0156 108.9 22.1361 108.568 22.377C108.242 22.6178 108.079 22.9401 108.079 23.3438C108.079 23.7083 108.232 23.9915 108.538 24.1934C108.844 24.3952 109.463 24.6003 110.394 24.8086C111.325 25.0104 112.054 25.2546 112.581 25.541C113.115 25.821 113.509 26.1595 113.763 26.5566C114.023 26.9538 114.154 27.4355 114.154 28.002C114.154 28.9525 113.76 29.724 112.972 30.3164C112.184 30.9023 111.152 31.1953 109.876 31.1953C109.01 31.1953 108.239 31.0391 107.562 30.7266C106.885 30.4141 106.357 29.9844 105.98 29.4375C105.602 28.8906 105.413 28.3014 105.413 27.6699H107.718C107.751 28.2298 107.962 28.6628 108.353 28.9688C108.743 29.2682 109.261 29.418 109.905 29.418C110.53 29.418 111.006 29.3008 111.331 29.0664C111.657 28.8255 111.82 28.513 111.82 28.1289ZM118.718 21.5859C119.492 20.6875 120.472 20.2383 121.657 20.2383C123.91 20.2383 125.052 21.5241 125.085 24.0957V31H122.712V24.1836C122.712 23.4544 122.552 22.9401 122.233 22.6406C121.921 22.3346 121.458 22.1816 120.846 22.1816C119.896 22.1816 119.186 22.6048 118.718 23.4512V31H116.345V16H118.718V21.5859ZM136.914 25.8242C136.914 27.4648 136.547 28.7702 135.811 29.7402C135.082 30.7103 134.076 31.1953 132.793 31.1953C131.556 31.1953 130.593 30.7493 129.903 29.8574L129.786 31H127.637V16H130.01V21.4492C130.694 20.6419 131.615 20.2383 132.774 20.2383C134.063 20.2383 135.075 20.7168 135.811 21.6738C136.547 22.6309 136.914 23.9688 136.914 25.6875V25.8242ZM134.541 25.6191C134.541 24.4733 134.34 23.6139 133.936 23.041C133.532 22.4681 132.946 22.1816 132.178 22.1816C131.149 22.1816 130.427 22.6309 130.01 23.5293V27.8848C130.433 28.8027 131.163 29.2617 132.198 29.2617C132.94 29.2617 133.513 28.985 133.916 28.4316C134.32 27.8783 134.528 27.0417 134.541 25.9219V25.6191ZM138.617 25.6191C138.617 24.584 138.822 23.653 139.232 22.8262C139.643 21.9928 140.219 21.3548 140.961 20.9121C141.703 20.4629 142.556 20.2383 143.52 20.2383C144.945 20.2383 146.101 20.6973 146.986 21.6152C147.878 22.5332 148.36 23.7507 148.432 25.2676L148.441 25.8242C148.441 26.8659 148.24 27.7969 147.836 28.6172C147.439 29.4375 146.866 30.0723 146.117 30.5215C145.375 30.9707 144.516 31.1953 143.539 31.1953C142.048 31.1953 140.854 30.7005 139.955 29.7109C139.063 28.7148 138.617 27.39 138.617 25.7363V25.6191ZM140.99 25.8242C140.99 26.9115 141.215 27.7643 141.664 28.3828C142.113 28.9948 142.738 29.3008 143.539 29.3008C144.34 29.3008 144.962 28.9883 145.404 28.3633C145.854 27.7383 146.078 26.8236 146.078 25.6191C146.078 24.5514 145.847 23.7051 145.385 23.0801C144.929 22.4551 144.307 22.1426 143.52 22.1426C142.745 22.1426 142.13 22.4518 141.674 23.0703C141.218 23.6823 140.99 24.6003 140.99 25.8242ZM156.912 31C156.808 30.7982 156.716 30.4694 156.638 30.0137C155.883 30.8014 154.959 31.1953 153.865 31.1953C152.804 31.1953 151.938 30.8926 151.267 30.2871C150.597 29.6816 150.261 28.9329 150.261 28.041C150.261 26.9147 150.678 26.0521 151.511 25.4531C152.351 24.8477 153.549 24.5449 155.105 24.5449H156.56V23.8516C156.56 23.3047 156.407 22.8685 156.101 22.543C155.795 22.2109 155.33 22.0449 154.705 22.0449C154.164 22.0449 153.722 22.1816 153.377 22.4551C153.032 22.722 152.859 23.0638 152.859 23.4805H150.486C150.486 22.901 150.678 22.3607 151.062 21.8594C151.446 21.3516 151.967 20.9544 152.625 20.668C153.289 20.3815 154.028 20.2383 154.841 20.2383C156.078 20.2383 157.065 20.5508 157.8 21.1758C158.536 21.7943 158.914 22.6667 158.933 23.793V28.5586C158.933 29.5091 159.067 30.2676 159.334 30.834V31H156.912ZM154.304 29.291C154.773 29.291 155.212 29.1771 155.623 28.9492C156.039 28.7214 156.352 28.4154 156.56 28.0312V26.0391H155.281C154.402 26.0391 153.741 26.1921 153.298 26.498C152.856 26.804 152.634 27.237 152.634 27.7969C152.634 28.2526 152.784 28.6172 153.084 28.8906C153.39 29.1576 153.796 29.291 154.304 29.291ZM167.101 22.6016C166.788 22.5495 166.466 22.5234 166.134 22.5234C165.047 22.5234 164.314 22.9401 163.937 23.7734V31H161.564V20.4336H163.829L163.888 21.6152C164.461 20.6973 165.255 20.2383 166.271 20.2383C166.609 20.2383 166.889 20.2839 167.111 20.375L167.101 22.6016ZM168.11 25.6387C168.11 24.0111 168.488 22.7057 169.243 21.7227C169.998 20.7331 171.011 20.2383 172.28 20.2383C173.4 20.2383 174.305 20.6289 174.995 21.4102V16H177.368V31H175.22L175.102 29.9062C174.393 30.7656 173.445 31.1953 172.261 31.1953C171.024 31.1953 170.021 30.6973 169.253 29.7012C168.491 28.7051 168.11 27.3509 168.11 25.6387ZM170.483 25.8438C170.483 26.918 170.688 27.7578 171.098 28.3633C171.515 28.9622 172.104 29.2617 172.866 29.2617C173.836 29.2617 174.546 28.8288 174.995 27.9629V23.4512C174.559 22.6048 173.856 22.1816 172.886 22.1816C172.117 22.1816 171.525 22.4876 171.108 23.0996C170.692 23.7051 170.483 24.6198 170.483 25.8438Z" fill="black" fill-opacity="0.87"/>
<path d="M12.1 16.1C6.64001 21.56 6.64001 30.4 12.06 35.86C15 29.06 20.24 23.38 26.78 20C21.24 24.68 17.36 31.22 16 38.64C21.2 41.1 27.6 40.2 31.9 35.9C38.86 28.94 40 8 40 8C40 8 19.06 9.14 12.1 16.1Z" fill="#E91E63"/>
</svg>
