<svg width="219" height="48" viewBox="0 0 219 48" fill="none" xmlns="http://www.w3.org/2000/svg">
<path d="M10.288 32.056C12.6773 32.056 14.64 31.672 16.176 30.904C17.7547 30.0933 18.544 28.7493 18.544 26.872C18.544 25.976 18.3947 25.208 18.096 24.568C17.84 23.928 17.392 23.352 16.752 22.84C16.112 22.328 15.2587 21.8373 14.192 21.368C13.168 20.8987 11.888 20.344 10.352 19.704C9.11467 19.192 7.94133 18.68 6.832 18.168C5.72267 17.6133 4.74133 16.9947 3.888 16.312C3.03467 15.5867 2.352 14.7333 1.84 13.752C1.328 12.7707 1.072 11.576 1.072 10.168C1.072 7.48 2.07467 5.304 4.08 3.64C6.128 1.976 8.92267 1.144 12.464 1.144C14.7253 1.144 16.5813 1.336 18.032 1.72C19.5253 2.104 20.5707 2.44533 21.168 2.744L20.208 6.456C19.696 6.2 18.8213 5.85867 17.584 5.432C16.3893 5.00533 14.6187 4.792 12.272 4.792C11.3333 4.792 10.4373 4.89867 9.584 5.112C8.77333 5.28267 8.048 5.58133 7.408 6.008C6.768 6.392 6.256 6.904 5.872 7.544C5.488 8.14133 5.296 8.888 5.296 9.784C5.296 10.68 5.46667 11.448 5.808 12.088C6.14933 12.728 6.64 13.304 7.28 13.816C7.96267 14.2853 8.77333 14.7333 9.712 15.16C10.6933 15.5867 11.8027 16.056 13.04 16.568C14.32 17.08 15.536 17.6133 16.688 18.168C17.8827 18.68 18.928 19.32 19.824 20.088C20.72 20.8133 21.4453 21.7093 22 22.776C22.5547 23.8 22.832 25.1013 22.832 26.68C22.832 29.6667 21.7013 31.928 19.44 33.464C17.2213 35 14.1707 35.768 10.288 35.768C7.38667 35.768 5.168 35.512 3.632 35C2.096 34.5307 1.072 34.168 0.56 33.912L1.648 30.136C1.776 30.2213 2.05333 30.3707 2.48 30.584C2.90667 30.7547 3.48267 30.968 4.208 31.224C4.93333 31.4373 5.78667 31.6293 6.768 31.8C7.792 31.9707 8.96533 32.056 10.288 32.056ZM56.287 33.848C55.0497 34.1893 53.3857 34.5733 51.295 35C49.2043 35.4267 46.6443 35.64 43.615 35.64C41.1403 35.64 39.071 35.2773 37.407 34.552C35.743 33.8267 34.399 32.8027 33.375 31.48C32.351 30.1573 31.6043 28.5573 31.135 26.68C30.7083 24.8027 30.495 22.7333 30.495 20.472V1.912H34.655V19.128C34.655 21.4747 34.8257 23.4587 35.167 25.08C35.5083 26.7013 36.063 28.024 36.831 29.048C37.599 30.0293 38.5803 30.7547 39.775 31.224C41.0123 31.6507 42.5057 31.864 44.255 31.864C46.2177 31.864 47.9243 31.7573 49.375 31.544C50.8257 31.3307 51.743 31.1387 52.127 30.968V1.912H56.287V33.848ZM78.5805 1.272C79.9458 1.272 81.2258 1.37867 82.4205 1.592C83.6578 1.80533 84.5112 2.01867 84.9805 2.232L84.1485 5.816C83.8072 5.64533 83.1032 5.47467 82.0365 5.304C81.0125 5.09067 79.6472 4.984 77.9405 4.984C76.1485 4.984 74.6978 5.112 73.5885 5.368C72.5218 5.624 71.8178 5.83733 71.4765 6.008V35H67.3165V3.448C68.3832 2.97867 69.8552 2.50933 71.7325 2.04C73.6098 1.528 75.8925 1.272 78.5805 1.272ZM102.613 30.52C103.509 28.6853 104.426 26.5947 105.365 24.248C106.304 21.8587 107.2 19.4053 108.053 16.888C108.949 14.328 109.76 11.768 110.485 9.208C111.253 6.60533 111.893 4.17333 112.405 1.912H116.565C115.797 4.94133 114.944 7.928 114.005 10.872C113.066 13.816 112.064 16.696 110.997 19.512C109.973 22.328 108.885 25.0373 107.733 27.64C106.624 30.2427 105.536 32.696 104.469 35H100.501C99.3917 32.696 98.2823 30.2427 97.173 27.64C96.0637 25.0373 94.9757 22.328 93.909 19.512C92.885 16.696 91.9037 13.816 90.965 10.872C90.0263 7.928 89.173 4.94133 88.405 1.912H92.821C93.333 4.17333 93.9517 6.60533 94.677 9.208C95.445 11.768 96.2557 14.328 97.109 16.888C98.005 19.4053 98.9223 21.8587 99.861 24.248C100.8 26.5947 101.717 28.6853 102.613 30.52ZM121.395 18.424C121.395 15.5227 121.8 13.0053 122.611 10.872C123.464 8.696 124.552 6.88266 125.875 5.432C127.24 3.98133 128.776 2.91467 130.483 2.232C132.232 1.50666 134.024 1.144 135.859 1.144C139.912 1.144 143.134 2.46666 145.523 5.112C147.955 7.75733 149.171 11.832 149.171 17.336C149.171 17.6773 149.15 18.0187 149.107 18.36C149.107 18.7013 149.086 19.0213 149.043 19.32H125.811C125.939 23.3733 126.942 26.488 128.819 28.664C130.696 30.84 133.683 31.928 137.779 31.928C140.04 31.928 141.832 31.7147 143.155 31.288C144.478 30.8613 145.438 30.4987 146.035 30.2L146.803 33.784C146.206 34.1253 145.075 34.5307 143.411 35C141.79 35.4693 139.87 35.704 137.651 35.704C134.75 35.704 132.275 35.2773 130.227 34.424C128.179 33.5707 126.494 32.376 125.171 30.84C123.848 29.304 122.888 27.4907 122.291 25.4C121.694 23.2667 121.395 20.9413 121.395 18.424ZM144.883 15.8C144.798 12.344 143.987 9.656 142.451 7.736C140.915 5.816 138.739 4.856 135.923 4.856C134.43 4.856 133.086 5.15467 131.891 5.752C130.739 6.34933 129.715 7.16 128.819 8.184C127.966 9.16533 127.283 10.3173 126.771 11.64C126.302 12.9627 126.024 14.3493 125.939 15.8H144.883ZM167.466 35.704C166.058 33.1013 164.692 30.392 163.37 27.576C162.09 24.76 160.874 21.9227 159.722 19.064C158.612 16.1627 157.588 13.2827 156.65 10.424C155.711 7.52267 154.9 4.68533 154.218 1.912H158.634C159.103 3.96 159.7 6.17867 160.426 8.568C161.151 10.9147 161.962 13.3467 162.858 15.864C163.796 18.3813 164.82 20.9627 165.93 23.608C167.039 26.2533 168.234 28.856 169.514 31.416C170.452 28.7707 171.284 26.2747 172.01 23.928C172.735 21.5813 173.396 19.256 173.994 16.952C174.634 14.6053 175.231 12.216 175.786 9.784C176.383 7.352 177.002 4.728 177.642 1.912H181.802C180.436 8.09867 178.879 14.1147 177.13 19.96C175.38 25.8053 173.482 31.16 171.434 36.024C170.623 37.944 169.791 39.5867 168.938 40.952C168.084 42.36 167.124 43.512 166.058 44.408C165.034 45.304 163.818 45.9653 162.41 46.392C161.044 46.8187 159.423 47.032 157.546 47.032C156.479 47.032 155.498 46.904 154.602 46.648C153.748 46.392 153.215 46.2 153.002 46.072L153.834 42.616C154.004 42.744 154.474 42.9147 155.242 43.128C156.052 43.384 156.884 43.512 157.738 43.512C158.932 43.512 159.999 43.384 160.938 43.128C161.919 42.872 162.794 42.424 163.562 41.784C164.33 41.1867 165.012 40.3973 165.61 39.416C166.25 38.4347 166.868 37.1973 167.466 35.704Z" fill="black"/>
<circle cx="201.5" cy="17.5" r="16.4" stroke="#1890FF" stroke-width="2.2"/>
<path d="M210 17.5C210 22.1944 206.194 26 201.5 26C196.806 26 193 22.1944 193 17.5C193 12.8056 196.806 9 201.5 9C206.194 9 210 12.8056 210 17.5Z" fill="#1890FF"/>
</svg>
