<svg width="206" height="47" viewBox="0 0 206 47" fill="none" xmlns="http://www.w3.org/2000/svg">
<path d="M11.312 29.432C13.36 29.432 14.8533 29.1973 15.792 28.728C16.7307 28.216 17.2 27.3627 17.2 26.168C17.2 25.0587 16.688 24.1413 15.664 23.416C14.6827 22.6907 13.04 21.9013 10.736 21.048C9.328 20.536 8.02667 20.0027 6.832 19.448C5.68 18.8507 4.67733 18.168 3.824 17.4C2.97067 16.632 2.288 15.7147 1.776 14.648C1.30667 13.5387 1.072 12.1947 1.072 10.616C1.072 7.544 2.20267 5.13333 4.464 3.384C6.72533 1.592 9.79733 0.695999 13.68 0.695999C15.6427 0.695999 17.52 0.887999 19.312 1.272C21.104 1.61333 22.448 1.95466 23.344 2.296L21.936 8.568C21.0827 8.184 19.9947 7.84267 18.672 7.544C17.3493 7.20267 15.8133 7.032 14.064 7.032C12.4853 7.032 11.2053 7.30933 10.224 7.864C9.24267 8.376 8.752 9.18667 8.752 10.296C8.752 10.8507 8.83733 11.3413 9.008 11.768C9.22133 12.1947 9.56267 12.6 10.032 12.984C10.5013 13.3253 11.12 13.688 11.888 14.072C12.656 14.4133 13.5947 14.776 14.704 15.16C16.5387 15.8427 18.096 16.5253 19.376 17.208C20.656 17.848 21.7013 18.5947 22.512 19.448C23.3653 20.2587 23.984 21.1973 24.368 22.264C24.752 23.3307 24.944 24.6107 24.944 26.104C24.944 29.304 23.7493 31.736 21.36 33.4C19.0133 35.0213 15.6427 35.832 11.248 35.832C8.304 35.832 5.936 35.576 4.144 35.064C2.352 34.5947 1.09333 34.2107 0.368 33.912L1.712 27.448C2.864 27.9173 4.22933 28.3653 5.808 28.792C7.42933 29.2187 9.264 29.432 11.312 29.432ZM55.474 33.976C53.9807 34.36 52.0393 34.744 49.65 35.128C47.2607 35.5547 44.6367 35.768 41.778 35.768C39.09 35.768 36.8287 35.384 34.994 34.616C33.202 33.848 31.7513 32.7813 30.642 31.416C29.5753 30.0507 28.8073 28.4293 28.338 26.552C27.8687 24.632 27.634 22.5413 27.634 20.28V1.528H35.378V19.064C35.378 22.648 35.89 25.208 36.914 26.744C37.9807 28.28 39.8153 29.048 42.418 29.048C43.3567 29.048 44.338 29.0053 45.362 28.92C46.4287 28.8347 47.218 28.728 47.73 28.6V1.528H55.474V33.976ZM80.2425 8.504C79.6025 8.29066 78.7065 8.07733 77.5545 7.864C76.4452 7.608 75.1438 7.48 73.6505 7.48C72.7972 7.48 71.8798 7.56533 70.8985 7.736C69.9598 7.90667 69.2985 8.056 68.9145 8.184V35H61.1705V3.128C62.6638 2.57333 64.5198 2.06133 66.7385 1.592C68.9998 1.08 71.4958 0.823997 74.2265 0.823997C74.7385 0.823997 75.3358 0.866665 76.0185 0.952C76.7012 0.994666 77.3838 1.08 78.0665 1.208C78.7492 1.29333 79.4105 1.42133 80.0505 1.592C80.6905 1.72 81.2025 1.848 81.5865 1.976L80.2425 8.504ZM92.524 35C90.3907 30.6053 88.1933 25.5707 85.932 19.896C83.7133 14.1787 81.6867 8.056 79.852 1.528H88.108C88.5773 3.40533 89.1107 5.432 89.708 7.608C90.348 9.74133 91.0093 11.896 91.692 14.072C92.4173 16.2053 93.1427 18.296 93.868 20.344C94.636 22.3493 95.34 24.1627 95.98 25.784C96.62 24.1627 97.3027 22.3493 98.028 20.344C98.7533 18.296 99.4573 16.2053 100.14 14.072C100.865 11.896 101.548 9.74133 102.188 7.608C102.828 5.432 103.383 3.40533 103.852 1.528H111.852C110.017 8.056 107.969 14.1787 105.708 19.896C103.489 25.5707 101.313 30.6053 99.18 35H92.524ZM110.87 18.424C110.87 15.48 111.296 12.8987 112.15 10.68C113.046 8.46133 114.219 6.62667 115.67 5.176C117.12 3.68266 118.784 2.57333 120.662 1.848C122.539 1.08 124.459 0.695999 126.422 0.695999C131.03 0.695999 134.614 2.12533 137.174 4.984C139.776 7.84267 141.078 12.1093 141.078 17.784C141.078 18.2107 141.056 18.7013 141.014 19.256C141.014 19.768 140.992 20.2373 140.95 20.664H118.87C119.083 23.352 120.022 25.4427 121.686 26.936C123.392 28.3867 125.846 29.112 129.046 29.112C130.923 29.112 132.63 28.9413 134.166 28.6C135.744 28.2587 136.982 27.896 137.878 27.512L138.902 33.848C138.475 34.0613 137.878 34.296 137.11 34.552C136.384 34.7653 135.531 34.9573 134.55 35.128C133.611 35.3413 132.587 35.512 131.478 35.64C130.368 35.768 129.238 35.832 128.086 35.832C125.142 35.832 122.582 35.4053 120.406 34.552C118.23 33.656 116.438 32.44 115.03 30.904C113.622 29.3253 112.576 27.4907 111.894 25.4C111.211 23.2667 110.87 20.9413 110.87 18.424ZM133.334 14.968C133.334 13.9013 133.184 12.8987 132.886 11.96C132.587 10.9787 132.139 10.1467 131.542 9.464C130.987 8.73867 130.283 8.184 129.43 7.8C128.619 7.37333 127.638 7.16 126.486 7.16C125.291 7.16 124.246 7.39466 123.35 7.864C122.454 8.29066 121.686 8.86666 121.046 9.592C120.448 10.3173 119.979 11.1493 119.638 12.088C119.296 13.0267 119.062 13.9867 118.934 14.968H133.334ZM172.456 1.528C169 14.2427 164.989 25.7627 160.424 36.088C159.571 38.008 158.696 39.6507 157.8 41.016C156.904 42.3813 155.901 43.512 154.792 44.408C153.683 45.304 152.445 45.944 151.08 46.328C149.715 46.7547 148.136 46.968 146.344 46.968C145.149 46.968 143.955 46.84 142.76 46.584C141.608 46.328 140.733 46.0507 140.136 45.752L141.544 39.544C143.08 40.1413 144.595 40.44 146.088 40.44C148.093 40.44 149.651 39.9493 150.76 38.968C151.912 38.0293 152.915 36.5573 153.768 34.552C151.336 29.8587 148.989 24.7387 146.728 19.192C144.509 13.6453 142.525 7.75733 140.776 1.528H149.032C149.459 3.32 149.971 5.26133 150.568 7.352C151.208 9.44267 151.891 11.576 152.616 13.752C153.341 15.8853 154.109 18.0187 154.92 20.152C155.731 22.2853 156.541 24.2693 157.352 26.104C158.717 22.3067 159.997 18.2747 161.192 14.008C162.387 9.69867 163.475 5.53867 164.456 1.528H172.456Z" fill="black"/>
<circle cx="188.5" cy="18.5" r="16.4" stroke="#1890FF" stroke-width="2.2"/>
<path d="M197 18.5C197 23.1944 193.194 27 188.5 27C183.806 27 180 23.1944 180 18.5C180 13.8056 183.806 10 188.5 10C193.194 10 197 13.8056 197 18.5Z" fill="#1890FF"/>
</svg>
