<svg width="40" height="40" viewBox="0 0 40 40" fill="none" xmlns="http://www.w3.org/2000/svg">
<circle cx="20" cy="20" r="20" fill="#FCB72D"/>
<path d="M10.5963 21.7064C10.5398 20.2609 10.3701 15.9244 12.454 13.6711C13.8433 12.1689 16.5138 12.9949 19.3062 13.0409C21.7111 13.0806 23.6336 12.157 25.8253 13.1477C28.7729 14.4801 28.2196 18.845 28.6803 21.3605C28.8076 22.0552 29.0653 20.8158 29.7362 20.5953C32.237 19.7735 30.3233 26.3633 29.2675 27.1285C28.7633 27.4939 28.6506 26.8593 28.5449 27.1569C27.2412 30.8273 24 34.0088 19.5 34.0088C15 34.0088 12.0489 31.06 10.8229 27.4886C10.5963 26.8286 10.5 28.0088 9.71052 26.8083C9.37247 26.2942 8.70649 24.156 8.48506 23.2368C8.13203 21.7715 8.57775 20.6311 9.47039 20.6647C10.0692 20.6873 10.6198 22.3052 10.5963 21.7064Z" fill="#FF5D7D"/>
<path d="M20.1868 21C20.1868 21 18.5847 24.1785 19.6868 24.5C20.0617 24.6093 20.6868 24.5 20.6868 24.5" stroke="#3E2F5B" stroke-width="0.5"/>
<path d="M9.48957 19.1409C9.61843 20.161 9.84305 21.0744 10.5747 22.0341C11.1261 22.7574 9.85135 15.1625 13.1063 13.7159C15.1163 12.8225 16.8535 13.7159 19.2546 13.7159C21.7862 13.7159 24.753 12.1775 26.126 13.3543C28.6578 15.5242 28.3584 22.6328 28.6578 22.0341C29.3811 20.5874 29.1207 18.7497 29.7427 16.9709C29.9937 16.2529 30.3303 15.911 30.466 15.1626C30.6691 14.0422 29.4727 13.2167 30.1043 12.2693C30.8278 11.1842 31.551 9.37599 31.551 9.37599C31.551 9.37599 30.2468 10.8458 29.381 10.461C26.1261 9.01439 27.2111 5.34614 20.7011 5.0361C12.0311 4.62318 12.6432 7.86509 11.4995 9.00879L11.4979 9.01038C10.9995 9.50879 10.9989 9.50932 9.99999 10.0088C8.73477 10.6415 8.2878 12.2452 8.40459 14.0776C8.48134 15.2819 9.31201 15.7773 9.48957 16.9709C9.61426 17.8091 9.34657 18.0088 9.48957 19.1409Z" fill="#4117AB"/>
<path d="M17.4461 18.4174C17.4461 17.9191 15.6384 17.694 14.5531 17.6941C13.694 17.6941 12.3828 17.8581 12.3828 18.4174C12.3828 18.9767 13.6595 18.7791 14.5528 18.7791C15.6381 18.7791 17.4461 18.9158 17.4461 18.4174Z" fill="#3E2F5B"/>
<path d="M21.7863 18.4174C21.7863 17.9191 23.594 17.694 24.6793 17.6941C25.5385 17.6941 26.8496 17.8581 26.8496 18.4174C26.8496 18.9767 25.5729 18.7791 24.6796 18.7791C23.5944 18.7791 21.7863 18.9158 21.7863 18.4174Z" fill="#3E2F5B"/>
<circle cx="15.9997" cy="21.6" r="0.723324" fill="#3E2F5B"/>
<circle cx="23.7233" cy="21.7233" r="0.723324" fill="#3E2F5B"/>
<path d="M30.1768 22.1226C28.9262 21.408 29.4534 24.2925 29.4534 24.2925" stroke="#3E2F5B" stroke-width="0.361662" stroke-linecap="round"/>
<path d="M9.2998 22.1226C10.5504 21.408 10.0231 24.2925 10.0231 24.2925" stroke="#3E2F5B" stroke-width="0.361662" stroke-linecap="round"/>
<path d="M16.3613 27.8208C17 28.5088 18.5 29.0088 19.9779 28.9058" stroke="#382957" stroke-width="0.506327" stroke-linecap="round"/>
<circle cx="15.6381" cy="21.8896" r="3.43579" stroke="white" stroke-width="0.361662"/>
<circle cx="24.3178" cy="22.0341" r="3.43579" stroke="white" stroke-width="0.361662"/>
<path d="M18.8931 22.0342H21.063" stroke="white" stroke-width="0.361662"/>
</svg>
