<svg width="40" height="40" viewBox="0 0 40 40" fill="none" xmlns="http://www.w3.org/2000/svg">
<circle cx="20" cy="20" r="20" fill="#FCB72D"/>
<path d="M10.5963 22.0106C10.5398 20.5651 10.3701 16.2286 12.454 13.9753C13.8433 12.4731 16.5138 13.2991 19.3062 13.3451C21.7111 13.3848 23.6336 12.4612 25.8253 13.4519C28.7729 14.7843 28.2196 19.1492 28.6803 21.6647C28.8076 22.3594 29.0653 21.12 29.7362 20.8995C32.237 20.0777 30.3233 26.6675 29.2675 27.4327C28.7633 27.7981 28.6506 27.1635 28.5449 27.4611C27.2412 31.1315 24 34.313 19.5 34.313C15 34.313 12.0489 31.3642 10.8229 27.7928C10.5963 27.1328 10.5 28.313 9.71052 27.1125C9.37247 26.5984 8.70649 24.4602 8.48506 23.541C8.13203 22.0757 8.57775 20.9353 9.47039 20.9689C10.0692 20.9915 10.6198 22.6094 10.5963 22.0106Z" fill="#FF5D7D"/>
<path d="M9.49011 19.4451C9.61897 20.4653 9.84359 21.3787 10.5752 22.3384C11.1267 23.0617 9.85189 15.4668 13.1068 14.0201C15.1168 13.1268 16.8541 14.0201 19.2551 14.0201C21.7867 14.0201 24.7536 12.4818 26.1266 13.6586C28.6583 15.8284 28.2007 22.9371 28.5 22.3384C29.2233 20.8917 29.1213 19.0539 29.7432 17.2752C29.9942 16.5572 30.3308 16.2152 30.4665 15.4669C30.6697 14.3464 30.4921 13.2431 30 12.313C29.457 11.2867 28.5 10.813 27.8 10.813C27.1 10.813 26.7774 10.7292 26.5 10.3131C25.5 8.81312 25.5 7.81289 21 5.81315C15.6587 3.43956 10.7184 6.87638 10 8.31296C9.5 9.31277 9.99937 10.8132 10 11.3131C10.0023 13.1213 8.28834 12.5495 8.40512 14.3819C8.48188 15.5862 9.31255 16.0816 9.49011 17.2752C9.6148 18.1134 9.38391 18.6044 9.49011 19.4451Z" fill="#4117AB"/>
<path d="M19.5002 34.313C24.0004 34.313 28.1298 31.1466 28.5002 27.813C28.8705 24.4793 28.7993 19.3128 28.2997 21.8129C27.8002 24.3129 27.0002 27.813 25.0006 28.313C23.0011 28.813 21.9149 26.7616 19.5002 26.813C17.2744 26.8603 16.0006 28.313 14.0002 28.313C13.0239 28.313 12.5006 27.813 12.0002 26.813C11.0878 24.9899 11.2001 23.8129 10.7003 21.8129C10.0475 19.2007 10.5 26.313 10.7006 27.7239C11.1934 31.1907 15 34.313 19.5002 34.313Z" fill="#4117AB"/>
<path d="M17.4461 18.7216C17.4461 18.2233 15.6384 17.9982 14.5531 17.9983C13.694 17.9983 12.3828 18.1623 12.3828 18.7216C12.3828 19.2809 13.6595 19.0833 14.5528 19.0833C15.6381 19.0833 17.4461 19.22 17.4461 18.7216Z" fill="#3E2F5B"/>
<path d="M21.7863 18.7216C21.7863 18.2233 23.594 17.9982 24.6793 17.9983C25.5385 17.9983 26.8496 18.1623 26.8496 18.7216C26.8496 19.2809 25.5729 19.0833 24.6796 19.0833C23.5944 19.0833 21.7863 19.22 21.7863 18.7216Z" fill="#3E2F5B"/>
<circle cx="15.9997" cy="21.9042" r="0.723324" fill="#3E2F5B"/>
<circle cx="23.5944" cy="21.9042" r="0.723324" fill="#3E2F5B"/>
<path d="M30.1768 22.4268C28.9262 21.7122 29.4534 24.5967 29.4534 24.5967" stroke="#3E2F5B" stroke-width="0.361662" stroke-linecap="round"/>
<path d="M9.2998 22.4268C10.5504 21.7122 10.0231 24.5967 10.0231 24.5967" stroke="#3E2F5B" stroke-width="0.361662" stroke-linecap="round"/>
<path d="M16.3613 28.125C17 28.813 18.5 29.313 19.9779 29.21" stroke="#382957" stroke-width="0.506327" stroke-linecap="round"/>
<path d="M20.2469 21.5C20.2469 21.5 18.6447 24.6785 19.7469 25C20.1218 25.1093 20.7469 25 20.7469 25" stroke="#3E2F5B" stroke-width="0.5"/>
</svg>
