<svg width="40" height="40" viewBox="0 0 40 40" fill="none" xmlns="http://www.w3.org/2000/svg">
<circle cx="20" cy="20" r="20" fill="#FCB72D"/>
<path d="M10.7954 20.6307C10.7388 19.1852 10.1986 13.4334 11.6988 10.9332C13.5178 7.90159 16.6997 6.43334 19.6995 6.43311C22.6994 6.43287 25.931 7.72213 27.6988 10.9332C29.4666 14.1443 28.4187 17.7692 28.8794 20.2848C29.0066 20.9795 29.2644 19.7401 29.9353 19.5196C32.4361 18.6978 30.5224 25.2876 29.4666 26.0528C28.9624 26.4182 28.8497 25.7836 28.744 26.0812C27.4403 29.7516 24.1991 32.9331 19.6991 32.9331C15.1991 32.9331 12.2479 29.9843 11.022 26.4129C10.7954 25.7529 10.6991 26.9331 9.90961 25.7326C9.57157 25.2185 8.90558 23.0803 8.68415 22.1611C8.33113 20.6958 8.77685 19.5554 9.66948 19.589C10.2683 19.6116 10.8189 21.2295 10.7954 20.6307Z" fill="#FF5D7D"/>
<path d="M17.6453 17.3417C17.6453 16.8434 15.8376 16.6183 14.7523 16.6184C13.8932 16.6185 12.582 16.7824 12.582 17.3417C12.582 17.901 13.8587 17.7034 14.752 17.7034C15.8373 17.7034 17.6453 17.8401 17.6453 17.3417Z" fill="#3E2F5B"/>
<path d="M21.9856 17.3417C21.9856 16.8434 23.7932 16.6183 24.8786 16.6184C25.7377 16.6185 27.0488 16.7824 27.0488 17.3417C27.0488 17.901 25.7721 17.7034 24.8789 17.7034C23.7936 17.7034 21.9856 17.8401 21.9856 17.3417Z" fill="#3E2F5B"/>
<circle cx="16.1989" cy="20.5243" r="0.723324" fill="#3E2F5B"/>
<circle cx="23.7936" cy="20.5243" r="0.723324" fill="#3E2F5B"/>
<path d="M30.376 21.0469C29.1254 20.3323 29.6527 23.2168 29.6527 23.2168" stroke="#3E2F5B" stroke-width="0.361662" stroke-linecap="round"/>
<path d="M9.49902 21.0469C10.7496 20.3323 10.2223 23.2168 10.2223 23.2168" stroke="#3E2F5B" stroke-width="0.361662" stroke-linecap="round"/>
<path d="M16.5605 26.7451C17.1992 27.4331 18.6992 27.9331 20.1772 27.8301" stroke="#382957" stroke-width="0.506327" stroke-linecap="round"/>
<path d="M18.1992 24.2L17.1992 25.7M19.6992 24.2V26.2M21.1992 24.2L22.1992 25.7" stroke="#382957" stroke-width="0.5" stroke-linecap="round"/>
<path d="M20.2869 19.5C20.2869 19.5 18.6848 22.6785 19.7869 23C20.1618 23.1093 20.7869 23 20.7869 23" stroke="#3E2F5B" stroke-width="0.5"/>
</svg>
