<svg width="40" height="40" viewBox="0 0 40 40" fill="none" xmlns="http://www.w3.org/2000/svg">
<circle cx="20" cy="20" r="20" fill="#FCB72D"/>
<path d="M10.5983 21.7064C10.5417 20.2609 10.372 15.9244 12.456 13.6711C13.8453 12.1689 16.5158 12.9949 19.3082 13.0409C21.713 13.0806 23.6355 12.157 25.8272 13.1477C28.7749 14.4801 28.2215 18.845 28.6823 21.3605C28.8095 22.0552 29.0673 20.8158 29.7381 20.5953C32.239 19.7735 30.3253 26.3633 29.2694 27.1285C28.7652 27.4939 28.6526 26.8593 28.5469 27.1569C27.2431 30.8273 24.002 34.0088 19.502 34.0088C15.002 34.0088 12.0508 31.06 10.8249 27.4886C10.5983 26.8286 10.502 28.0088 9.71247 26.8083C9.37443 26.2942 8.70844 24.156 8.48701 23.2368C8.13399 21.7715 8.57971 20.6311 9.47234 20.6647C10.0711 20.6873 10.6217 22.3052 10.5983 21.7064Z" fill="#FF5D7D"/>
<path d="M20.0872 21C20.0872 21 18.4851 24.1785 19.5872 24.5C19.9621 24.6093 20.5872 24.5 20.5872 24.5" stroke="#3E2F5B" stroke-width="0.5"/>
<path d="M9.49142 19.1408C10.4824 20.2816 10.0004 22 10.5765 22.034C11.4845 22.0877 9.8532 15.1624 13.1082 13.7158C15.1181 12.8225 16.8554 13.7158 19.2564 13.7158C21.788 13.7158 24.7549 12.1775 26.1279 13.3542C28.6596 15.5241 27.9936 22.1005 28.6596 22.034C29.0004 22 28.5004 19.5 29.5004 17.5C30.5004 15.5 32.7147 17 33.0004 15C33.3333 12.6696 30.5004 13 30.5004 11.5C30.5004 9.57689 32.8603 8.85985 31.5004 7.50004C30.0004 6.00012 28.6596 8.00004 27.0004 7.50022C25.0813 6.92211 26.5004 3.99994 24.5004 3.50001C22.027 2.88175 23.0004 7 20 7C16.9996 7 18.2133 3.17564 15.5004 3.50001C12.7875 3.82439 14.3941 7.5974 12.0004 8.49996C10.4986 9.0662 9 6.56104 7.5004 8.50001C6.5 9.79353 8.63753 10.593 8.00082 12.5C7.5 14 5.5 13.5 5.5 15.5C5.5 17.4941 8.5004 18 9.49142 19.1408Z" fill="#4117AB"/>
<path d="M17.448 18.4174C17.448 17.9191 15.6404 17.694 14.555 17.6941C13.6959 17.6941 12.3848 17.8581 12.3848 18.4174C12.3848 18.9767 13.6615 18.7791 14.5547 18.7791C15.64 18.7791 17.448 18.9158 17.448 18.4174Z" fill="#3E2F5B"/>
<path d="M21.7878 18.4174C21.7878 17.9191 23.5955 17.694 24.6808 17.6941C25.5399 17.6941 26.8511 17.8581 26.8511 18.4174C26.8511 18.9767 25.5744 18.7791 24.6811 18.7791C23.5958 18.7791 21.7878 18.9158 21.7878 18.4174Z" fill="#3E2F5B"/>
<circle cx="16.0016" cy="21.6" r="0.723324" fill="#3E2F5B"/>
<circle cx="23.5964" cy="21.6" r="0.723324" fill="#3E2F5B"/>
<path d="M30.1787 22.1226C28.9281 21.408 29.4554 24.2925 29.4554 24.2925" stroke="#3E2F5B" stroke-width="0.361662" stroke-linecap="round"/>
<path d="M9.30176 22.1226C10.5523 21.408 10.0251 24.2925 10.0251 24.2925" stroke="#3E2F5B" stroke-width="0.361662" stroke-linecap="round"/>
<path d="M16.3633 27.8206C17.002 28.5085 18.502 29.0085 19.9799 28.9055" stroke="#382957" stroke-width="0.506327" stroke-linecap="round"/>
<circle cx="15.6401" cy="21.8893" r="3.43579" stroke="white" stroke-width="0.361662"/>
<circle cx="24.3197" cy="22.0341" r="3.43579" stroke="white" stroke-width="0.361662"/>
<path d="M18.8945 22.0339H21.0645" stroke="white" stroke-width="0.361662"/>
</svg>
