<svg width="40" height="40" viewBox="0 0 40 40" fill="none" xmlns="http://www.w3.org/2000/svg">
<circle cx="20" cy="20" r="20" fill="#FCB72D"/>
<path d="M6.07333 30.5C5.32327 29 10.573 26.5 10.573 26.5L13.073 28.5C13.073 28.5 10.2427 35.1703 8.57297 33.5L8.57134 33.4984C7.5722 32.4989 6.57314 31.4995 6.07333 30.5Z" fill="#4117AB"/>
<path d="M33.3998 30.5C34.1499 29 28.9001 26.5 28.9001 26.5L26.4001 28.5C26.4001 28.5 29.2304 35.1703 30.9002 33.5L30.9018 33.4984C31.9009 32.4989 32.9 31.4995 33.3998 30.5Z" fill="#4117AB"/>
<path d="M10.6685 22.2064C10.6119 20.7609 10.4422 16.4244 12.5262 14.1711C13.9155 12.6689 17.2804 9.95397 20.0728 10C22.4776 10.0396 23.7057 12.6571 25.8974 13.6477C28.8451 14.9801 28.2917 19.345 28.7525 21.8606C28.8797 22.5552 29.1375 21.3158 29.8083 21.0954C32.3092 20.2736 30.3955 26.8634 29.3396 27.6286C28.8354 27.994 28.7228 27.3593 28.6171 27.6569C27.3133 31.3273 24.0722 34.5088 19.5722 34.5088C15.0722 34.5088 12.121 31.5601 10.8951 27.9887C10.6685 27.3286 10.5722 28.5088 9.78267 27.3083C9.44463 26.7943 8.77864 24.656 8.55721 23.7369C8.20419 22.2715 8.64991 21.1311 9.54254 21.1647C10.1413 21.1873 10.6919 22.8052 10.6685 22.2064Z" fill="#FF5D7D"/>
<path d="M28.5662 21.4501L28.5735 21.5C28.8543 23.4235 29.2735 20.7 30.2735 21.2C31.9264 22.0265 30.199 25.1242 30.8735 24C32.0735 22 31.5148 14.8828 30.8736 13C29.0005 7.5 25.0492 5 19.4996 5C13.9996 5 10.0016 8.00042 8.49989 13C7.94079 14.8613 7.57297 22 8.57368 24C9.07392 24.9998 7.81358 22.1299 9.07289 21.5C10.0725 21 10.7727 23 10.773 22.5C10.7751 19.1044 11.0735 14.9651 13.573 13.8542C15.5829 12.9609 19.0281 16 21.0735 11.5C21.7554 9.99997 22.2953 13.5647 24.0735 13.8928C27.5569 14.5355 28.0587 17.9732 28.5662 21.4501Z" fill="#4117AB"/>
<path d="M17.5188 18.9174C17.5188 18.4191 15.7112 18.194 14.6258 18.1941C13.7667 18.1941 12.4556 18.3581 12.4556 18.9174C12.4556 19.4767 13.7323 19.2791 14.6255 19.2791C15.7108 19.2791 17.5188 19.4158 17.5188 18.9174Z" fill="#3E2F5B"/>
<path d="M21.8586 18.9174C21.8586 18.4191 23.6663 18.194 24.7516 18.1941C25.6107 18.1941 26.9219 18.3581 26.9219 18.9174C26.9219 19.4767 25.6452 19.2791 24.7519 19.2791C23.6666 19.2791 21.8586 19.4158 21.8586 18.9174Z" fill="#3E2F5B"/>
<circle cx="16.072" cy="22.1" r="0.723324" fill="#3E2F5B"/>
<circle cx="23.6672" cy="22.1" r="0.723324" fill="#3E2F5B"/>
<path d="M30.249 22.6226C28.9985 21.908 29.5257 24.7925 29.5257 24.7925" stroke="#3E2F5B" stroke-width="0.361662" stroke-linecap="round"/>
<path d="M9.37256 22.6226C10.6231 21.908 10.0959 24.7925 10.0959 24.7925" stroke="#3E2F5B" stroke-width="0.361662" stroke-linecap="round"/>
<path d="M16.4336 28.3206C17.0723 29.0085 18.5723 29.5085 20.0502 29.4055" stroke="#382957" stroke-width="0.506327" stroke-linecap="round"/>
<path d="M20.2366 22.5C20.2366 22.5 18.6345 25.6785 19.7366 26C20.1115 26.1093 20.7366 26 20.7366 26" stroke="#3E2F5B" stroke-width="0.5"/>
</svg>
