<svg width="40" height="40" viewBox="0 0 40 40" fill="none" xmlns="http://www.w3.org/2000/svg">
<circle cx="20" cy="20" r="20" fill="#FCB72D"/>
<mask id="mask0" mask-type="alpha" maskUnits="userSpaceOnUse" x="0" y="0" width="40" height="40">
<circle cx="20" cy="20" r="20" fill="#FCB72D"/>
</mask>
<g mask="url(#mask0)">
<rect x="18" y="34" width="4" height="8" fill="#4117AB"/>
<path d="M10.668 22.2064C10.6114 20.7609 10.4417 16.4244 12.5257 14.1711C13.915 12.6689 17.2799 9.95397 20.0723 10C22.4771 10.0396 23.7053 12.6571 25.897 13.6477C28.8446 14.9801 28.2913 19.345 28.752 21.8606C28.8792 22.5552 29.137 21.3158 29.8079 21.0954C32.3087 20.2736 30.395 26.8634 29.3391 27.6286C28.8349 27.994 28.7223 27.3593 28.6166 27.6569C27.3129 31.3273 24.0717 34.5088 19.5717 34.5088C15.0717 34.5088 12.1205 31.5601 10.8946 27.9887C10.668 27.3286 10.5717 28.5088 9.78218 27.3083C9.44414 26.7943 8.77816 24.656 8.55673 23.7369C8.2037 22.2715 8.64942 21.1311 9.54206 21.1647C10.1409 21.1873 10.6914 22.8052 10.668 22.2064Z" fill="#FF5D7D"/>
<path d="M28.5 22.5C28.5 19 28 16 25.5 13.8542C23.6312 12.2502 21.4989 12 19.4989 12C17.5 12 14.9225 12.4863 13.2001 13.8542C11.1278 15.5 10.8595 19.1073 10.9999 22.5C11.1296 25.6359 10 33 19 34.5C19.5 34.5833 19.5 41 19.5 41C19.5 41 1.50071 39 1.5 38.5C1.49682 36.2636 7.9401 14.8613 8.4992 13C10.001 8.00042 13.9989 5 19.4989 5C25.0485 5 28.9998 7.5 30.8729 13C31.5141 14.8828 37.2 36.5 36 38.5C35.4321 39.4464 22.8152 41.2801 19.9429 41.8362C19.8216 41.942 19.6755 42 19.5 42C19.2078 42 19.4036 41.9406 19.9429 41.8362C21.2039 40.7361 19.7822 34.4657 20.8 34.4C23.1368 34.2492 28.5 32.5 28.5 22.5Z" fill="#4117AB"/>
<path d="M17.5179 18.9174C17.5179 18.4191 15.7102 18.194 14.6249 18.1941C13.7657 18.1941 12.4546 18.3581 12.4546 18.9174C12.4546 19.4767 13.7313 19.2791 14.6246 19.2791C15.7098 19.2791 17.5179 19.4158 17.5179 18.9174Z" fill="#3E2F5B"/>
<path d="M20.387 21.5C20.387 21.5 18.7849 24.6785 19.887 25C20.2619 25.1093 20.887 25 20.887 25" stroke="#3E2F5B" stroke-width="0.5"/>
<path d="M21.8581 18.9174C21.8581 18.4191 23.6658 18.194 24.7511 18.1941C25.6102 18.1941 26.9214 18.3581 26.9214 18.9174C26.9214 19.4767 25.6447 19.2791 24.7514 19.2791C23.6661 19.2791 21.8581 19.4158 21.8581 18.9174Z" fill="#3E2F5B"/>
<circle cx="16.0715" cy="22.1" r="0.723324" fill="#3E2F5B"/>
<circle cx="23.6662" cy="22.1" r="0.723324" fill="#3E2F5B"/>
<path d="M16.4331 28.3206C17.0718 29.0085 18.5718 29.5085 20.0497 29.4055" stroke="#382957" stroke-width="0.506327" stroke-linecap="round"/>
<circle cx="15.7099" cy="22.3893" r="3.43579" stroke="white" stroke-width="0.361662"/>
<circle cx="24.3896" cy="22.5341" r="3.43579" stroke="white" stroke-width="0.361662"/>
<path d="M18.9648 22.5339H21.1348" stroke="white" stroke-width="0.361662"/>
</g>
</svg>
