<svg width="40" height="40" viewBox="0 0 40 40" fill="none" xmlns="http://www.w3.org/2000/svg">
<circle cx="20" cy="20" r="20" fill="#FCB72D"/>
<mask id="mask0" mask-type="alpha" maskUnits="userSpaceOnUse" x="0" y="0" width="40" height="40">
<circle cx="20" cy="20" r="20" fill="#FCB72D"/>
</mask>
<g mask="url(#mask0)">
<path d="M10.668 22.2064C10.6114 20.7609 10.4417 16.4244 12.5257 14.1711C13.915 12.6689 17.2799 9.95397 20.0723 10C22.4771 10.0396 23.7053 12.6571 25.897 13.6477C28.8446 14.9801 28.2913 19.345 28.752 21.8606C28.8792 22.5552 29.137 21.3158 29.8079 21.0954C32.3087 20.2736 30.395 26.8634 29.3391 27.6286C28.8349 27.994 28.7223 27.3593 28.6166 27.6569C27.3129 31.3273 24.0717 34.5088 19.5717 34.5088C15.0717 34.5088 12.1205 31.5601 10.8946 27.9887C10.668 27.3286 10.5717 28.5088 9.78218 27.3083C9.44414 26.7943 8.77816 24.656 8.55673 23.7369C8.2037 22.2715 8.64942 21.1311 9.54206 21.1647C10.1409 21.1873 10.6914 22.8052 10.668 22.2064Z" fill="#FF5D7D"/>
<path d="M24.0729 13.8928C27.5729 14.5386 28.5001 14.5 28.5001 22.5C28.5001 32.5 22.6556 34.2803 20.8001 34.4C19.6844 34.472 20.8001 34.5 29 33.5C31.323 33.2167 33.8333 32.5 34 32C34.5 30.5 31.5141 14.8828 30.8729 13C28.9999 7.5 25.0486 5 19.499 5C13.999 5 10.001 8.00042 8.49928 13C7.94018 14.8613 5.49682 29.7636 5.5 32C5.50071 32.5 13 33.5 13 33.5L19.0001 34.5C10.0001 33 11.1297 25.6359 10.9999 22.5C10.8596 19.1073 11.0729 14.9651 13.5724 13.8542C15.5823 12.9609 19.0275 16 21.0729 11.5C21.7548 9.99997 22.2947 13.5647 24.0729 13.8928Z" fill="#4117AB"/>
<path d="M17.5183 18.9174C17.5183 18.4191 15.7107 18.194 14.6253 18.1941C13.7662 18.1941 12.4551 18.3581 12.4551 18.9174C12.4551 19.4767 13.7318 19.2791 14.6251 19.2791C15.7103 19.2791 17.5184 19.4158 17.5183 18.9174Z" fill="#3E2F5B"/>
<path d="M21.8581 18.9174C21.8581 18.4191 23.6658 18.194 24.7511 18.1941C25.6102 18.1941 26.9214 18.3581 26.9214 18.9174C26.9214 19.4767 25.6447 19.2791 24.7514 19.2791C23.6661 19.2791 21.8581 19.4158 21.8581 18.9174Z" fill="#3E2F5B"/>
<path d="M20.137 22.5C20.137 22.5 18.5349 25.6785 19.637 26C20.0119 26.1093 20.637 26 20.637 26" stroke="#3E2F5B" stroke-width="0.5"/>
<circle cx="16.0715" cy="22.1" r="0.723324" fill="#3E2F5B"/>
<circle cx="23.6662" cy="22.1" r="0.723324" fill="#3E2F5B"/>
<path d="M16.4331 28.3206C17.0718 29.0085 18.5718 29.5085 20.0497 29.4055" stroke="#382957" stroke-width="0.506327" stroke-linecap="round"/>
</g>
</svg>
